<svg xmlns="http://www.w3.org/2000/svg" viewBox="0 0 700 152" width="700" height="152" role="img" aria-label="KÏOKU きおく"><title>KÏOKU きおく</title><g fill="#000000"><path d="M9.200000000000001 98.5V25.5H18.2V56.8H29.0L45.2 25.5H55.0L36.9 60.6L56.0 98.5H45.7L28.700000000000003 64.69999999999999H18.2V98.5Z"/><path d="M170.5 98.5V90.3H185.4V33.7H170.5V25.5H209.5V33.7H194.6V90.3H209.5V98.5ZM201.1 16.799999999999997Q198.2 16.799999999999997 196.45 15.099999999999994Q194.7 13.399999999999991 194.7 10.5Q194.7 7.5 196.45 5.75Q198.2 4.0 201.1 4.0Q204.0 4.0 205.75 5.75Q207.5 7.5 207.5 10.5Q207.5 13.399999999999991 205.75 15.099999999999994Q204.0 16.799999999999997 201.1 16.799999999999997ZM178.9 16.799999999999997Q176.0 16.799999999999997 174.25 15.099999999999994Q172.5 13.399999999999991 172.5 10.5Q172.5 7.5 174.25 5.75Q176.0 4.0 178.9 4.0Q181.8 4.0 183.55 5.75Q185.3 7.5 185.3 10.5Q185.3 13.399999999999991 183.55 15.099999999999994Q181.8 16.799999999999997 178.9 16.799999999999997Z"/><path d="M350.0 99.5Q343.4 99.5 338.65 97.0Q333.9 94.5 331.35 89.75Q328.8 85.0 328.8 78.5V45.5Q328.8 38.9 331.35 34.2Q333.9 29.5 338.65 27.0Q343.4 24.5 350.0 24.5Q356.6 24.5 361.35 27.0Q366.1 29.5 368.65 34.2Q371.2 38.9 371.2 45.4V78.5Q371.2 85.0 368.65 89.75Q366.1 94.5 361.35 97.0Q356.6 99.5 350.0 99.5ZM350.0 91.4Q355.9 91.4 359.04999999999995 88.05000000000001Q362.2 84.7 362.2 78.5V45.5Q362.2 39.3 359.04999999999995 35.949999999999996Q355.9 32.599999999999994 350.0 32.599999999999994Q344.2 32.599999999999994 341.0 35.949999999999996Q337.8 39.3 337.8 45.5V78.5Q337.8 84.7 341.0 88.05000000000001Q344.2 91.4 350.0 91.4Z"/><path d="M489.2 98.5V25.5H498.2V56.8H509.0L525.2 25.5H535.0L516.9 60.6L536.0 98.5H525.7L508.7 64.69999999999999H498.2V98.5Z"/><path d="M670.0 99.5Q659.8 99.5 654.4 93.85Q649.0 88.2 649.0 78.5V25.5H658.0V78.5Q658.0 84.5 660.95 88.0Q663.9 91.5 670.0 91.5Q676.0 91.5 679.0 88.0Q682.0 84.5 682.0 78.5V25.5H691.0V78.5Q691.0 88.3 685.65 93.9Q680.3 99.5 670.0 99.5Z"/><path d="M183.13426245117188 129.84188903808592Q185.3615341796875 130.10940844726562 187.50961920166014 130.14592785644533Q189.6577042236328 130.182447265625 191.31034008789064 130.01700549316405Q192.58017004394532 129.87004431152343 193.86980590820312 129.59680401611328Q195.15944177246092 129.32356372070313 196.2418299560547 128.95748608398438L196.4195822753906 130.01606286621094Q195.40582995605467 130.31262109375 194.11443438720704 130.5731016845703Q192.82303881835938 130.83358227539063 191.56728649902342 130.98054345703125Q189.90672827148438 131.1459852294922 187.70320886230468 131.1349852294922Q185.499689453125 131.12398522949218 183.21785949707032 130.91894641113282ZM182.6863400878906 134.3026025390625Q184.51057299804688 134.4970831298828 186.32733270263674 134.55384283447268Q188.14409240722657 134.6106025390625 189.7945341796875 134.5371219482422Q191.44497595214844 134.46364135742186 192.69457299804688 134.29819958496094Q194.14303881835937 134.1257189941406 195.45424029541016 133.83047869873047Q196.76544177246095 133.5352384033203 197.5926358642578 133.26771899414064L197.76950463867186 134.34389282226562Q196.920310546875 134.58589282226563 195.69534936523436 134.83185400390624Q194.47038818359374 135.07781518554688 193.05798522949217 135.25029577636718Q191.72390759277343 135.41925695800782 190.02199261474607 135.50373754882813Q188.32007763671874 135.58821813964843 186.45712384033203 135.55521813964845Q184.59417004394533 135.52221813964843 182.75145654296875 135.3937375488281ZM190.31243249511718 129.02342700195314Q190.21035485839843 128.6001552734375 190.07351751708984 128.16940295410157Q189.93668017578125 127.73865063476563 189.80204431152345 127.37874304199218L191.03748986816407 127.18954895019532Q191.13604809570313 128.03434008789063 191.38948986816405 129.04282067871094Q191.642931640625 130.05130126953125 191.95137341308595 131.0272236328125Q192.25981518554687 132.00314599609376 192.50885400390624 132.73882067871094Q192.8432569580078 133.64610717773436 193.2537763671875 134.61234747314452Q193.6642957763672 135.57858776855468 194.1702957763672 136.53382806396485Q194.6762957763672 137.489068359375 195.2861405029297 138.38139367675782Q195.43573754882811 138.60402954101562 195.62405548095703 138.80862658691404Q195.81237341308594 139.0132236328125 196.01300927734374 139.21034008789061L195.33807763671877 140.14837341308595Q194.72207763671875 139.9644510498047 193.93888354492188 139.84169134521483Q193.155689453125 139.718931640625 192.34345654296874 139.62565252685545Q191.5312236328125 139.53237341308593 190.78762658691406 139.46285400390624L190.88530126953125 138.57762658691405Q191.88235485839843 138.677068359375 192.9207651977539 138.79675042724608Q193.9591755371094 138.9164324951172 194.49509790039062 138.9973936767578Q193.56317553710937 137.61227722167968 192.8230905151367 136.02078924560547Q192.08300549316405 134.42930126953127 191.56116076660157 133.01161181640626Q191.29716076660156 132.2750535888672 191.06747869873047 131.57324768066405Q190.83779663085937 130.87144177246094 190.6521145629883 130.2206746826172Q190.46643249511717 129.56990759277343 190.31243249511718 129.02342700195314ZM185.28314978027345 138.81345654296874Q184.88714978027343 139.3968983154297 184.64383184814454 139.98913861083986Q184.40051391601563 140.58137890625 184.40051391601563 141.34082067871094Q184.40051391601563 142.78051013183594 185.70028100585938 143.5549204711914Q187.00004809570314 144.32933081054688 189.8266358642578 144.32933081054688Q191.3516746826172 144.32933081054688 192.52998522949218 144.2158114013672Q193.70829577636718 144.1022919921875 194.9112569580078 143.8638114013672L194.87958227539062 144.99717932128905Q193.7355822753906 145.19165991210937 192.5242717285156 145.28493902587888Q191.31296118164062 145.37821813964842 189.86359704589844 145.37821813964842Q187.734 145.37821813964842 186.28728649902342 144.9514196166992Q184.84057299804687 144.52462109375 184.10137890624998 143.65122552490234Q183.36218481445312 142.7778299560547 183.35514599609374 141.4604805908203Q183.35162658691405 140.593689453125 183.5782236328125 139.9226968383789Q183.80482067871094 139.2517042236328 184.16385949707032 138.54858776855468Z"/><path d="M347.7022810058594 127.10682067871093Q347.6767615966797 127.28634008789062 347.66048248291014 127.49005358886718Q347.6442033691406 127.69376708984375 347.6279242553711 127.91772088623046Q347.61164514160157 128.14167468261718 347.5896451416016 128.39071350097657Q347.5826063232422 128.78758227539063 347.5496063232422 129.64118670654295Q347.5166063232422 130.4947911376953 347.485366027832 131.58688354492188Q347.45412573242186 132.67897595214845 347.43388543701167 133.78954895019533Q347.41364514160153 134.9001219482422 347.41364514160153 135.81092785644532Q347.41364514160153 136.64252490234375 347.4264048461914 137.6184398803711Q347.43916455078124 138.59435485839845 347.4629242553711 139.5482698364258Q347.48668395996094 140.50218481445313 347.49944366455077 141.33026245117188Q347.51220336914065 142.15834008789062 347.51220336914065 142.69426245117188Q347.51220336914065 143.51351940917968 347.309807800293 144.00938818359373Q347.1074122314453 144.5052569580078 346.7426599121094 144.72261370849608Q346.37790759277345 144.93997045898436 345.84463586425784 144.93997045898436Q345.2972864990234 144.93997045898436 344.57877447509765 144.66365252685546Q343.8602624511719 144.38733459472655 343.18310717773437 143.9209390258789Q342.50595190429686 143.45454345703126 342.0628742675781 142.85307025146486Q341.61979663085935 142.25159704589845 341.61979663085935 141.60128649902344Q341.61979663085935 140.68257299804688 342.35415338134766 139.7858594970703Q343.08851013183596 138.88914599609376 344.2527430419922 138.1147504272461Q345.41697595214845 137.34035485839843 346.6753641357422 136.84579663085938Q348.1678447265625 136.2289130859375 349.72236413574217 135.91299072265625Q351.2768835449219 135.597068359375 352.61624768066406 135.597068359375Q354.18792236328125 135.597068359375 355.35171350097653 136.12462658691408Q356.51550463867187 136.65218481445314 357.1719778442383 137.58937890625Q357.8284510498047 138.52657299804687 357.8284510498047 139.7295194091797Q357.8284510498047 141.06096118164064 357.24808691406247 142.03335675048828Q356.6677227783203 143.00575231933593 355.6359242553711 143.63670611572263Q354.6041257324219 144.26765991210937 353.2295822753906 144.58533459472656Q352.51502404785157 144.73933459472656 351.8224658203125 144.79037341308594Q351.12990759277346 144.8414122314453 350.6071940917969 144.85197045898437L350.21034008789064 143.72652490234375Q350.7620924072266 143.74500549316406 351.4198909301758 143.73048608398437Q352.077689453125 143.7159666748047 352.7385729980469 143.57252490234376Q353.7444177246094 143.36308312988282 354.6539057006836 142.90547869873046Q355.5633936767578 142.44787426757813 356.1314398803711 141.66642510986327Q356.69948608398437 140.88497595214844 356.69948608398437 139.7444805908203Q356.69948608398437 138.69638818359374 356.1349592895508 137.99414050292967Q355.5704324951172 137.29189282226562 354.63498333740233 136.9372495727539Q353.6995341796875 136.58260632324217 352.6092088623047 136.58260632324217Q351.1008835449219 136.58260632324217 349.7338059082031 136.8945675048828Q348.36672827148436 137.20652868652343 346.876 137.81637341308593Q345.76719409179685 138.2422957763672 344.82294641113276 138.88558227539062Q343.8786987304687 139.52886877441406 343.3163734130859 140.2311164550781Q342.7540480957031 140.93336413574218 342.7540480957031 141.55817004394532Q342.7540480957031 141.9964177246094 343.0506137084961 142.39418481445313Q343.34717932128905 142.79195190429687 343.8021478881836 143.09951751708985Q344.2571164550781 143.4070831298828 344.7508059082031 143.58572637939454Q345.2444953613281 143.76436962890625 345.62026245117187 143.76436962890625Q346.047068359375 143.76436962890625 346.2635489501953 143.4458040161133Q346.4800295410156 143.12723840332032 346.4800295410156 142.61068017578125Q346.4800295410156 141.93131604003906 346.4562698364258 140.78511456298827Q346.43251013183595 139.6389130859375 346.4087504272461 138.33431604003908Q346.38499072265626 137.02971899414064 346.38499072265626 135.8839666748047Q346.38499072265626 134.92300549316406 346.40347131347653 133.77503692626954Q346.42195190429686 132.627068359375 346.4404324951172 131.51693713378904Q346.4589130859375 130.40680590820313 346.47739367675786 129.57079852294922Q346.49587426757813 128.7347911376953 346.49587426757813 128.43119409179687Q346.49587426757813 128.20767468261718 346.48311456298825 127.97272088623046Q346.4703548583984 127.73776708984374 346.45583544921874 127.50281329345702Q346.44131604003906 127.26785949707032 346.3973160400391 127.10682067871093ZM354.862 129.57170422363282Q355.6126358642578 129.9861848144531 356.5427911376953 130.58414599609375Q357.4729464111328 131.18210717773437 358.32434197998043 131.7875489501953Q359.1757375488281 132.39299072265624 359.66237341308596 132.84795190429688L359.0393641357422 133.76133459472658Q358.6248835449219 133.34245104980468 358.0410073852539 132.88397045898438Q357.45713122558595 132.42548986816405 356.7984565429688 131.97273016357423Q356.13978186035155 131.51997045898437 355.49166540527347 131.11297045898436Q354.8435489501953 130.70597045898438 354.3005877685547 130.4120480957031ZM341.8468206787109 131.25604431152342Q342.71097595214843 131.36604431152344 343.30717004394535 131.40652490234373Q343.9033641357422 131.44700549316406 344.5158447265625 131.44700549316406Q345.3034417724609 131.44700549316406 346.31148059082034 131.3607651977539Q347.3195194091797 131.27452490234376 348.3882791137695 131.12404431152345Q349.45703881835936 130.9735637207031 350.472558227539 130.7570831298828Q351.48807763671874 130.5406025390625 352.2906358642578 130.2986025390625L352.3196746826172 131.41789282226563Q351.518 131.61941223144532 350.4826820678711 131.80289282226562Q349.4473641357422 131.98637341308594 348.3583641357422 132.1350942993164Q347.2693641357422 132.28381518554687 346.27364324951174 132.37753607177734Q345.2779223632813 132.4712569580078 344.53344177246095 132.4712569580078Q343.69657299804686 132.4712569580078 343.06297595214846 132.44001666259766Q342.42937890625 132.4087763671875 341.87585949707034 132.3612569580078Z"/><path d="M514.0989945068359 128.04485400390627Q513.8526063232422 128.24460632324218 513.4504510498048 128.60716455078125Q513.0482957763672 128.96972277832032 512.8300628662109 129.1589168701172Q512.24662109375 129.68428100585936 511.39125695800783 130.40984661865235Q510.5358928222656 131.13541223144532 509.5885675048828 131.90849725341798Q508.6412421875 132.68158227539064 507.75815716552734 133.39394641113282Q506.8750721435547 134.106310546875 506.2361885986328 134.64223291015625Q505.54186328125 135.25207763671875 505.29194091796876 135.6582014770508Q505.0420185546875 136.0643253173828 505.3029409179687 136.468689453125Q505.56386328125 136.87305358886718 506.33211096191405 137.52337890625Q506.9938780517578 138.0637042236328 507.8140407104492 138.73162658691405Q508.6342033691406 139.3995489501953 509.5252033691406 140.1550295410156Q510.41620336914065 140.91051013183593 511.32524218750007 141.70075042724608Q512.2342810058594 142.49099072265625 513.0848004150391 143.28343249511718Q513.9353198242187 144.07587426757811 514.6507615966797 144.8062772216797L513.670510131836 145.69237341308593Q513.1134860839844 145.05879113769532 512.4015784912109 144.34688354492187Q511.77325317382815 143.71503881835937 510.8756487426758 142.89091497802735Q509.97804431152343 142.0667911376953 508.9726413574219 141.1916284790039Q507.9672384033203 140.3164658203125 506.9987966308594 139.49674493408202Q506.0303548583984 138.67702404785157 505.2453936767578 138.03902404785157Q504.2342772216797 137.20038818359376 503.96719958496095 136.5896746826172Q503.7001219482422 135.9789611816406 504.07368017578125 135.3774879760742Q504.4472384033203 134.7760147705078 505.37299072265625 133.99634008789062Q505.9775489501953 133.48682067871093 506.87471160888674 132.76037890625Q507.77187426757814 132.03393713378907 508.74823840332033 131.22653417968752Q509.7246025390625 130.41913122558594 510.59624578857427 129.66496856689452Q511.46788903808596 128.91080590820312 512.017889038086 128.3273641357422Q512.2572384033203 128.0730535888672 512.5652310180665 127.70785949707032Q512.8732236328125 127.34266540527344 513.01137890625 127.08747131347656Z"/></g></svg>
